<svg xmlns="http://www.w3.org/2000/svg" width="178" height="178" viewBox="0 0 178 178">
  <g id="Burger" transform="translate(0 200)">
    <path id="Path_325" data-name="Path 325" d="M178-155.5A44.521,44.521,0,0,0,133.5-200h-89A44.521,44.521,0,0,0,0-155.5v89A44.521,44.521,0,0,0,44.5-22h89A44.521,44.521,0,0,0,178-66.5Z" fill="#fff" fill-rule="evenodd"/>
    <path id="Path_326" data-name="Path 326" d="M162.529-58.725a7.066,7.066,0,0,0-7.18-6.94H38.121a7.067,7.067,0,0,0-7.18,6.94v.24a7.067,7.067,0,0,0,7.18,6.94H155.35a7.066,7.066,0,0,0,7.18-6.94Z" transform="translate(-7.735 -12.823)" fill="#348140" fill-rule="evenodd"/>
    <path id="Path_327" data-name="Path 327" d="M162.529-102.573a7.066,7.066,0,0,0-7.18-6.94H38.121a7.067,7.067,0,0,0-7.18,6.94v.24a7.067,7.067,0,0,0,7.18,6.94H155.35a7.067,7.067,0,0,0,7.18-6.94Z" transform="translate(-7.735 -8.637)" fill="#348140" fill-rule="evenodd"/>
    <path id="Path_328" data-name="Path 328" d="M162.529-146.222a7.066,7.066,0,0,0-7.18-6.94H38.121a7.067,7.067,0,0,0-7.18,6.94v.24a7.067,7.067,0,0,0,7.18,6.941H155.35a7.067,7.067,0,0,0,7.18-6.941Z" transform="translate(-7.735 -4.471)" fill="#348140" fill-rule="evenodd"/>
  </g>
</svg>
