<svg id="Home" xmlns="http://www.w3.org/2000/svg" width="178.472" height="178.472" viewBox="0 0 178.472 178.472">
  <path id="Path_332" data-name="Path 332" d="M206.472,72.618A44.639,44.639,0,0,0,161.854,28H72.618A44.639,44.639,0,0,0,28,72.618v89.236a44.639,44.639,0,0,0,44.618,44.618h89.236a44.639,44.639,0,0,0,44.618-44.618Z" transform="translate(-28 -28)" fill="#fff" fill-rule="evenodd"/>
  <g id="Group_82" data-name="Group 82" transform="translate(18.93 30.223)">
    <path id="Path_333" data-name="Path 333" d="M145.675,110.742v38.079a10.079,10.079,0,0,1-9.936,10.207H106.591v-22.3a5.373,5.373,0,0,0-5.3-5.441H90.7a5.373,5.373,0,0,0-5.3,5.441v22.3H56.256a10.079,10.079,0,0,1-9.936-10.207V110.742L96,59.707ZM120.922,65.535V46.627a3.644,3.644,0,0,1,3.593-3.69H131.7a3.644,3.644,0,0,1,3.593,3.69V80.3l30.275,31.1a2.644,2.644,0,0,1,0,3.665L162,118.729a2.476,2.476,0,0,1-3.567,0L96,54.59,33.565,118.729a2.476,2.476,0,0,1-3.567,0l-3.568-3.665a2.644,2.644,0,0,1,0-3.665L94.214,41.762A2.483,2.483,0,0,1,95.992,41H96a2.483,2.483,0,0,1,1.778.758Z" transform="translate(-25.692 -41.004)" fill="#358241" fill-rule="evenodd"/>
  </g>
</svg>
