<svg xmlns="http://www.w3.org/2000/svg" width="178.001" height="178" viewBox="0 0 178.001 178">
  <g id="Kontakt" transform="translate(-1603 74)">
    <g id="Contacts" transform="translate(1603 -74)">
      <g id="Group_36" data-name="Group 36" transform="translate(0 0)">
        <path id="Path_294" data-name="Path 294" d="M220.768,104.458a44.521,44.521,0,0,0-44.5-44.5h-89a44.521,44.521,0,0,0-44.5,44.5v89a44.521,44.521,0,0,0,44.5,44.5h89a44.521,44.521,0,0,0,44.5-44.5Z" transform="translate(-42.767 -59.958)" fill="#fff" fill-rule="evenodd"/>
      </g>
      <path id="Path_295" data-name="Path 295" d="M61.967,87.17V78.34A29.4,29.4,0,0,1,91.351,48.956h58.77A29.4,29.4,0,0,1,179.506,78.34v81.93a29.4,29.4,0,0,1-29.384,29.384H91.351A29.4,29.4,0,0,1,61.967,160.27v-8.83H74.126a4.345,4.345,0,0,0,4.342-4.343v-8.685a4.344,4.344,0,0,0-4.342-4.342H61.967v-6.08H74.126a4.345,4.345,0,0,0,4.342-4.343v-8.685a4.345,4.345,0,0,0-4.342-4.343H61.967v-6.08H74.126a4.344,4.344,0,0,0,4.342-4.342V91.513a4.345,4.345,0,0,0-4.342-4.343Z" transform="translate(-31.736 -30.305)" fill="#358241" fill-rule="evenodd"/>
      <g id="Group_37" data-name="Group 37" transform="translate(18.861 83.654)">
        <path id="Path_296" data-name="Path 296" d="M59.988,59.142a2.674,2.674,0,0,0-2.673-2.673H37.764a2.674,2.674,0,0,0-2.673,2.673v5.346a2.675,2.675,0,0,0,2.673,2.674H57.315a2.675,2.675,0,0,0,2.673-2.674Z" transform="translate(-35.091 -56.469)" fill="#78a12f" fill-rule="evenodd"/>
      </g>
      <g id="Group_38" data-name="Group 38" transform="translate(18.861 107.104)">
        <path id="Path_297" data-name="Path 297" d="M59.988,59.142a2.674,2.674,0,0,0-2.673-2.673H37.764a2.674,2.674,0,0,0-2.673,2.673v5.346a2.675,2.675,0,0,0,2.673,2.674H57.315a2.675,2.675,0,0,0,2.673-2.674Z" transform="translate(-35.091 -56.469)" fill="#78a12f" fill-rule="evenodd"/>
      </g>
      <g id="Group_39" data-name="Group 39" transform="translate(18.861 60.204)">
        <path id="Path_298" data-name="Path 298" d="M59.988,59.142a2.674,2.674,0,0,0-2.673-2.673H37.764a2.674,2.674,0,0,0-2.673,2.673v5.346a2.675,2.675,0,0,0,2.673,2.674H57.315a2.675,2.675,0,0,0,2.673-2.674Z" transform="translate(-35.091 -56.469)" fill="#78a12f" fill-rule="evenodd"/>
      </g>
      <g id="Group_40" data-name="Group 40" transform="translate(57.908 88.699)">
        <path id="Path_299" data-name="Path 299" d="M154.569,128.916c18.143,0,32.873,12.643,32.873,28.217s-65.745,15.574-65.745,0S136.427,128.916,154.569,128.916Z" transform="translate(-121.697 -128.916)" fill="#fff" fill-rule="evenodd"/>
      </g>
      <g id="Group_41" data-name="Group 41" transform="translate(76.346 55.084)">
        <circle id="Ellipse_12" data-name="Ellipse 12" cx="14.434" cy="14.434" r="14.434" fill="#fff"/>
      </g>
    </g>
  </g>
</svg>
