<svg xmlns="http://www.w3.org/2000/svg" xmlns:xlink="http://www.w3.org/1999/xlink" width="631.1" height="287.565" viewBox="0 0 631.1 287.565">
  <defs>
    <clipPath id="clip-path">
      <path id="Path_315" data-name="Path 315" d="M1095.946,702.041c-9.866-20.384,39.274-75.035,63.236-102.42,22.294-25.48,55.87-68.446,80.536-61.891s49.045,78.346,67.464,101.219c11.736,14.573,30.5,24.409,43.054,36.018,11.412,10.551,42.157,25.81,32.291,33.636s-64.134,11.1-91.491,13.319c-24.139,1.959-48.562,2.455-72.655,0C1185.867,718.609,1105.812,722.424,1095.946,702.041Z" transform="translate(-1094.655 -537.058)" clip-rule="evenodd"/>
    </clipPath>
    <clipPath id="clip-path-2">
      <path id="Path_320" data-name="Path 320" d="M302.063,0,0,28.578l41.787,92.453,143.868,19.655Z" clip-rule="evenodd"/>
    </clipPath>
  </defs>
  <g id="Taczka" transform="translate(0 -317.158)">
    <g id="Group_57" data-name="Group 57" transform="translate(514.629 441.092) rotate(20.846)">
      <path id="Path_311" data-name="Path 311" d="M27.471,1.315A1.316,1.316,0,0,0,26.156,0H1.315A1.316,1.316,0,0,0,0,1.315V41.68s8.684,16.1,13.262,16.1,14.209-16.1,14.209-16.1Z" fill="#595959" fill-rule="evenodd"/>
    </g>
    <g id="Group_58" data-name="Group 58" transform="translate(521.673 317.158)">
      <path id="Path_312" data-name="Path 312" d="M1180.418,543a9.35,9.35,0,0,1-3.121-5.3c-.989-3.935-.652-9.4.079-14.631a1.895,1.895,0,0,1,2.4-1.559l19.893,5.684a1.9,1.9,0,0,1,1.135,2.744c-3.121,5.6-6.509,10.186-9.979,12.571a10.086,10.086,0,0,1-5.887,1.989c-5.615,14.966-36.086,96.105-43.379,114.168-.577,1.428-3.244,3.247-3.982,2.967s-.95-3.253-.445-4.649C1143.724,638.744,1174.514,558.4,1180.418,543Zm.433-17.236c-.47,4.016-.635,8.013.121,11.018.448,1.783,1.184,3.2,2.664,3.7,2.226.717,4.358-.322,6.472-2.235a35.737,35.737,0,0,0,6.182-8.074Z" transform="translate(-1136.852 -521.439)" fill="#8f5728" fill-rule="evenodd"/>
    </g>
    <g id="Group_61" data-name="Group 61" transform="translate(339.991 409.87)">
      <path id="Path_313" data-name="Path 313" d="M1095.946,702.041c-9.866-20.384,39.274-75.035,63.236-102.42,22.294-25.48,55.87-68.446,80.536-61.891s49.045,78.346,67.464,101.219c11.736,14.573,30.5,24.409,43.054,36.018,11.412,10.551,42.157,25.81,32.291,33.636s-64.134,11.1-91.491,13.319c-24.139,1.959-48.562,2.455-72.655,0C1185.867,718.609,1105.812,722.424,1095.946,702.041Z" transform="translate(-1094.655 -537.058)" fill="none" fill-rule="evenodd"/>
      <g id="Group_60" data-name="Group 60" transform="translate(0)" clip-path="url(#clip-path)">
        <g id="Group_59" data-name="Group 59" transform="translate(-104.617 -6.056)">
          <rect id="Rectangle_35" data-name="Rectangle 35" width="249.681" height="250.254" fill="#ffc867" stroke="#ffc867" stroke-linecap="round" stroke-linejoin="round" stroke-miterlimit="1.5" stroke-width="4.01"/>
        </g>
        <path id="Path_314" data-name="Path 314" d="M1291.2,527.839c-23.321-1.438,25.564,73.664-5.382,99.317-10.014,8.3,8.521,44.179,5.382,59.446-2.7,13.144-37.1,28.415-24.218,32.155,27.806,8.073,164.593,30.11,191.054,16.281s-10.47-72.155-32.291-99.254C1397.935,601.251,1314.517,529.278,1291.2,527.839Z" transform="translate(-1152.668 -533.895)" fill="#f0ae3e" fill-rule="evenodd"/>
      </g>
    </g>
    <g id="Group_62" data-name="Group 62" transform="translate(338.676 408.563)">
      <path id="Path_316" data-name="Path 316" d="M1094.078,701.934a17.076,17.076,0,0,0,6.887,6.9c4.605,2.765,11.061,4.871,18.679,6.469,29.009,6.087,75.127,4.922,97.921,7.245,24.172,2.462,48.676,1.967,72.894,0,19.183-1.557,51.575-3.634,72.675-7.427,9.316-1.675,16.472-3.75,19.527-6.173a5.814,5.814,0,0,0,2.392-4.012c.207-1.978-.747-4.225-2.655-6.571-6.4-7.871-23.927-17.631-31.952-25.05-12.516-11.57-31.228-21.354-42.924-35.877-11.023-13.69-24.171-44.956-38.253-69.182-5.71-9.824-11.58-18.5-17.51-24.451-4.1-4.113-8.249-6.932-12.387-8.032-10.2-2.71-21.923,2.616-33.732,11.851-17.2,13.453-34.707,35.1-48.132,50.445-16.83,19.235-46.024,51.887-58.64,76.755-3.317,6.538-5.492,12.556-6.061,17.674A17.092,17.092,0,0,0,1094.078,701.934Zm2.368-1.146a14.517,14.517,0,0,1-1.025-7.993c.541-4.861,2.644-10.565,5.793-16.774,12.53-24.7,41.557-57.109,58.274-76.213,13.329-15.235,30.7-36.748,47.772-50.106,11.042-8.637,21.9-13.915,31.436-11.38,3.755,1,7.482,3.615,11.2,7.346,5.8,5.815,11.516,14.312,17.1,23.917,14.153,24.347,27.4,55.75,38.479,69.509,11.775,14.622,30.585,24.51,43.185,36.159,7.953,7.352,25.352,16.978,31.7,24.778,1.559,1.917,2.482,3.635,1.96,5.189a3.694,3.694,0,0,1-1.29,1.672c-2.866,2.272-9.621,4.074-18.359,5.644-21.026,3.781-53.306,5.843-72.422,7.395-24.059,1.952-48.4,2.449-72.415,0-22.729-2.317-68.719-1.133-97.648-7.2-7.28-1.529-13.463-3.508-17.864-6.15A14.508,14.508,0,0,1,1096.446,700.787Z" transform="translate(-1092.655 -535.072)" fill="#ffbe56" fill-rule="evenodd"/>
    </g>
    <g id="Group_74" data-name="Group 74" transform="translate(0 331.016)">
      <g id="Group_66" data-name="Group 66" transform="matrix(0.976, 0.217, -0.217, 0.976, 119.104, 25.678)">
        <path id="Path_317" data-name="Path 317" d="M302.063,0,0,28.578l41.787,92.453,143.868,19.655Z" fill="#358241" fill-rule="evenodd"/>
        <g id="Group_65" data-name="Group 65" clip-path="url(#clip-path-2)">
          <g id="Group_63" data-name="Group 63" transform="translate(5.051 -18.491)">
            <path id="Path_318" data-name="Path 318" d="M175,138.571,267.341,0l26.366,13.189L207.47,142.606l37.118,4.614-4.324,26.111-49.193-6.115-18.725,28.1-26.366-13.189,12.626-18.948L0,143.465l4.324-26.111Z" fill="#18822d" fill-rule="evenodd"/>
          </g>
          <g id="Group_64" data-name="Group 64" transform="translate(-0.001 -11.896)">
            <path id="Path_319" data-name="Path 319" d="M186.93,143.664,282.661,0l26.366,13.189L219.255,147.91l25.289,3.322-4.564,26.081-37.072-4.87-15.243,22.875L161.3,182.129l9.284-13.933L0,145.786l4.564-26.081Z" fill="#35820f" fill-rule="evenodd"/>
          </g>
        </g>
      </g>
      <g id="Group_67" data-name="Group 67" transform="matrix(0.118, 0.993, -0.993, 0.118, 155.191, 75.351)">
        <path id="Path_321" data-name="Path 321" d="M56.556,3.645A3.644,3.644,0,0,0,52.911,0H3.645A3.644,3.644,0,0,0,0,3.645H0A3.644,3.644,0,0,0,3.645,7.29H52.911a3.644,3.644,0,0,0,3.645-3.645Z" fill="#fff" fill-rule="evenodd"/>
      </g>
      <g id="Group_68" data-name="Group 68" transform="matrix(0.976, 0.217, -0.217, 0.976, 149.009, 157.799)">
        <path id="Path_322" data-name="Path 322" d="M0,5.272C.054,30.818,3.2,49.518,7.905,60.814c3.95,9.488,9.432,14.265,14.772,15.221,5.575,1,12.1-1.754,18.117-10.125,6.869-9.563,13.827-27.3,19.274-53.9A5.261,5.261,0,1,0,49.76,9.9c-5.03,24.568-11.168,41.046-17.512,49.876a18.806,18.806,0,0,1-5.054,5.165,3.859,3.859,0,0,1-2.662.742,5.367,5.367,0,0,1-2.843-1.933,24.5,24.5,0,0,1-4.07-6.975c-4.36-10.471-7.047-27.839-7.1-51.52A5.261,5.261,0,1,0,0,5.272Z" fill="#404040" fill-rule="evenodd"/>
      </g>
      <g id="Group_69" data-name="Group 69" transform="translate(274.47 170.656) rotate(12.522)">
        <circle id="Ellipse_14" data-name="Ellipse 14" cx="43.189" cy="43.189" r="43.189" transform="translate(0)"/>
      </g>
      <g id="Group_70" data-name="Group 70" transform="matrix(0.976, 0.217, -0.217, 0.976, 287.672, 191.403)">
        <circle id="Ellipse_15" data-name="Ellipse 15" cx="25.797" cy="25.797" r="25.797" transform="translate(0 0)" fill="#595959"/>
      </g>
      <g id="Group_71" data-name="Group 71" transform="translate(296.317 204.981) rotate(12.522)">
        <circle id="Ellipse_16" data-name="Ellipse 16" cx="14.418" cy="14.418" r="14.418" transform="translate(0 0)" fill="#787878"/>
      </g>
      <g id="Group_72" data-name="Group 72" transform="matrix(0.976, 0.217, -0.217, 0.976, 52.457, 21.422)">
        <path id="Path_323" data-name="Path 323" d="M60.688,26.166,6.391,15.64a7.892,7.892,0,1,1,3-15.495l58.263,11.3a7.891,7.891,0,0,1,5.661,4.436l41.987,90.842,178.375,26.212a7.892,7.892,0,1,1-2.294,15.615l-182.6-26.832a7.892,7.892,0,0,1-6.016-4.5Z" transform="translate(0)" fill-rule="evenodd"/>
      </g>
      <g id="Group_73" data-name="Group 73">
        <path id="Path_324" data-name="Path 324" d="M63.815,359.105,14.857,339.036a10.748,10.748,0,0,0-13.749,5.258h0a11.06,11.06,0,0,0,5.758,15.057l47.411,19.435Z" transform="translate(0 -338.231)" fill="#404040" fill-rule="evenodd"/>
      </g>
    </g>
  </g>
</svg>
